# xmcd CD database file
# Generated: Pet Aug 1 22:27:51 2003 by KSCD
# 
# Track frame offsets:
#       150
#       19157
#       32541
#       53850
#       76859
#       96387
#       115296
#       132900
#       146760
#       165508
#
# Disc length: 2573 seconds
#
# Revision: 1
# Processed by: cddbd v1.4PL0 Copyright (c) Steve Scherf et al.
# Submitted via: Kscd 1.3.3
#
DISCID=7f0a0b0a
DTITLE=Ella Fitzgerald and Joe Pass - Speak Love
DYEAR=1900
DGENRE=
TTITLE0=Speak low
TTITLE1=Comes love
TTITLE2=There's no you
TTITLE3=I may be wrong (but I think you're wonderful)!
TTITLE4=At last
TTITLE5=The thrill is gone (Medley)
TTITLE6=Gone with the wind
TTITLE7=Blue and sentimental
TTITLE8=Girl talk
TTITLE9=Georgia on my mind
EXTD=
EXTT0=
EXTT1=
EXTT2=
EXTT3=
EXTT4=
EXTT5=
EXTT6=
EXTT7=
EXTT8=
EXTT9=
PLAYORDER=
